<svg xmlns="http://www.w3.org/2000/svg" viewBox="0 0 128 128">
  <defs>
    <linearGradient id="bridge" x1="0" y1="1" x2="1" y2="0">
      <stop offset="0" stop-color="#e84a5f"/>
      <stop offset=".2" stop-color="#f08c38"/>
      <stop offset=".4" stop-color="#f2cf43"/>
      <stop offset=".6" stop-color="#56b870"/>
      <stop offset=".8" stop-color="#4285d4"/>
      <stop offset="1" stop-color="#9061c2"/>
    </linearGradient>
  </defs>
  <path d="M14 45a38 38 0 0 1 48-5" fill="none" stroke="#26364a" stroke-width="8" stroke-linecap="round"/>
  <path d="M23 58a25 25 0 0 1 29-3" fill="none" stroke="#26364a" stroke-width="8" stroke-linecap="round"/>
  <path d="M31 72a12 12 0 0 1 12-1" fill="none" stroke="#26364a" stroke-width="8" stroke-linecap="round"/>
  <path d="M67 40a38 38 0 0 1 47 5" fill="none" stroke="#26364a" stroke-width="8" stroke-linecap="round"/>
  <path d="M76 55a25 25 0 0 1 29 3" fill="none" stroke="#26364a" stroke-width="8" stroke-linecap="round"/>
  <path d="M85 71a12 12 0 0 1 12 1" fill="none" stroke="#26364a" stroke-width="8" stroke-linecap="round"/>
  <path d="M44 86c9-8 31-8 40 0" fill="none" stroke="url(#bridge)" stroke-width="10" stroke-linecap="round"/>
  <path d="M39 96c13-12 37-12 50 0" fill="none" stroke="url(#bridge)" stroke-width="10" stroke-linecap="round"/>
  <circle cx="64" cy="109" r="6" fill="#26364a"/>
</svg>
